<svg width="1024" height="1024" viewBox="0 0 1024 1024" fill="none" xmlns="http://www.w3.org/2000/svg">
<rect width="1024" height="1024" rx="200" fill="#2D1439"/>
<path fill-rule="evenodd" clip-rule="evenodd" d="M511.368 893.788C722.573 893.788 893.788 722.573 893.788 511.368C893.788 300.163 722.573 128.948 511.368 128.948C300.163 128.948 128.948 300.163 128.948 511.368C128.948 722.573 300.163 893.788 511.368 893.788ZM403.64 476.783C403.64 454.341 385.447 436.148 363.005 436.148C340.563 436.148 322.37 454.341 322.37 476.783V660.995C322.37 683.437 340.563 701.63 363.005 701.63C385.447 701.63 403.64 683.437 403.64 660.995V476.783ZM549.926 360.296C549.926 339.35 532.946 322.37 512 322.37C491.054 322.37 474.074 339.35 474.074 360.296V663.704C474.074 684.65 491.054 701.63 512 701.63C532.946 701.63 549.926 684.65 549.926 663.704V360.296ZM701.63 577.016C701.63 556.07 684.65 539.09 663.704 539.09C642.758 539.09 625.778 556.07 625.778 577.016V663.704C625.778 684.65 642.758 701.63 663.704 701.63C684.65 701.63 701.63 684.65 701.63 663.704V577.016Z" fill="#E57CD8"/>
</svg>
