<svg width="661" height="140" viewBox="0 0 661 140" fill="none" xmlns="http://www.w3.org/2000/svg">
    <path d="M39.296 25.984V85.632C39.296 88.5333 39.8933 90.624 41.088 91.904C42.368 93.0987 44.3307 93.696 46.976 93.696C48.6827 93.696 50.176 93.568 51.456 93.312C52.736 93.056 53.9307 92.6293 55.04 92.032L56.32 108.672C54.1867 110.037 51.2853 111.104 47.616 111.872C43.9467 112.64 40.4907 113.024 37.248 113.024C31.2747 113.024 26.24 112.299 22.144 110.848C18.1333 109.312 15.0613 106.88 12.928 103.552C10.88 100.224 9.856 95.7867 9.856 90.24V34.176L39.296 25.984ZM55.424 47.744V67.584H0V47.744H55.424Z"
          fill="#02080D"/>
    <path d="M95.986 71.808C95.986 69.8453 95.5167 68.3093 94.578 67.2C93.7247 66.0907 92.3593 65.536 90.482 65.536C88.69 65.536 87.1967 66.048 86.002 67.072C84.8073 68.096 84.1247 70.144 83.954 73.216L59.122 69.632C59.7193 62.5493 62.7913 56.9173 68.338 52.736C73.8847 48.5547 81.9487 46.464 92.53 46.464C99.954 46.464 106.055 47.488 110.834 49.536C115.698 51.584 119.282 54.4427 121.586 58.112C123.975 61.7813 125.17 66.048 125.17 70.912V90.752C125.17 94.2507 126.834 96 130.162 96C131.101 96 131.826 95.872 132.338 95.616L131.058 110.72C127.901 112.256 124.103 113.024 119.666 113.024C115.655 113.024 112.071 112.469 108.914 111.36C105.842 110.165 103.41 108.416 101.618 106.112C99.9113 103.723 99.058 100.693 99.058 97.024V95.744H101.874C101.789 98.9867 100.722 101.931 98.674 104.576C96.7113 107.136 94.066 109.184 90.738 110.72C87.41 112.256 83.6127 113.024 79.346 113.024C74.8233 113.024 70.9833 112.341 67.826 110.976C64.754 109.611 62.4073 107.648 60.786 105.088C59.1647 102.528 58.354 99.4987 58.354 96C58.354 91.3067 59.8473 87.5093 62.834 84.608C65.8207 81.6213 70.13 79.5733 75.762 78.464L98.034 73.856L97.906 84.224L90.994 85.888C89.202 86.3147 87.922 87.04 87.154 88.064C86.386 89.0027 86.002 90.1973 86.002 91.648C86.002 93.0133 86.4287 94.1227 87.282 94.976C88.1353 95.8293 89.33 96.256 90.866 96.256C91.5487 96.256 92.1887 96.128 92.786 95.872C93.4687 95.616 94.0233 95.232 94.45 94.72C94.962 94.208 95.346 93.6107 95.602 92.928C95.858 92.16 95.986 91.3067 95.986 90.368V71.808Z"
          fill="#02080D"/>
    <path d="M133.988 111.744V47.744H160.484L161.124 63.744C162.575 58.4533 164.793 54.272 167.78 51.2C170.852 48.0427 174.905 46.464 179.94 46.464C181.903 46.464 183.396 46.6347 184.42 46.976C185.444 47.3173 186.169 47.6587 186.596 48L184.164 71.68C183.396 71.3387 182.287 71.04 180.836 70.784C179.385 70.528 177.807 70.4 176.1 70.4C173.54 70.4 171.321 70.8267 169.444 71.68C167.567 72.448 166.073 73.6 164.964 75.136C163.94 76.672 163.428 78.6347 163.428 81.024V111.744H133.988Z"
          fill="#02080D"/>
    <path d="M255.631 27.008L257.167 45.184C256.314 45.0133 255.503 44.8853 254.735 44.8C254.052 44.7147 253.37 44.672 252.687 44.672C249.188 44.672 246.628 45.6533 245.007 47.616C243.471 49.4933 242.703 51.4987 242.703 53.632L234.127 51.072C234.127 47.4027 234.682 43.7333 235.791 40.064C236.9 36.3093 238.82 33.1947 241.551 30.72C244.282 28.16 247.994 26.88 252.687 26.88C253.114 26.88 253.583 26.88 254.095 26.88C254.607 26.88 255.119 26.9227 255.631 27.008ZM232.079 93.568C240.356 93.568 246.671 95.232 251.023 98.56C255.375 101.888 257.551 106.88 257.551 113.536C257.551 119.509 256.058 124.373 253.071 128.128C250.084 131.968 245.732 134.784 240.015 136.576C234.383 138.368 227.514 139.264 219.407 139.264C206.863 139.264 197.988 137.984 192.783 135.424C187.578 132.864 184.975 129.024 184.975 123.904C184.975 120.32 186.639 117.547 189.967 115.584C193.295 113.621 198.756 112.64 206.351 112.64L206.095 114.816C199.354 114.133 194.49 112.427 191.503 109.696C188.602 106.88 187.151 103.253 187.151 98.816C187.151 94.2933 188.986 90.752 192.655 88.192C196.41 85.5467 201.018 84.224 206.479 84.224L215.311 88.064H212.751C210.02 88.064 208.1 88.32 206.991 88.832C205.882 89.2587 205.327 89.9413 205.327 90.88C205.327 91.7333 205.711 92.416 206.479 92.928C207.332 93.3547 208.698 93.568 210.575 93.568H232.079ZM219.791 121.472C223.375 121.472 226.319 121.344 228.623 121.088C231.012 120.832 232.804 120.405 233.999 119.808C235.194 119.296 235.791 118.613 235.791 117.76C235.791 117.248 235.62 116.821 235.279 116.48C234.938 116.224 234.298 116.096 233.359 116.096H208.399C207.546 116.096 206.906 116.309 206.479 116.736C206.052 117.163 205.839 117.675 205.839 118.272C205.839 119.381 207.076 120.192 209.551 120.704C212.026 121.216 215.439 121.472 219.791 121.472ZM221.583 46.464C229.092 46.464 235.364 47.2747 240.399 48.896C245.434 50.5173 249.231 52.9493 251.791 56.192C254.351 59.3493 255.631 63.4027 255.631 68.352C255.631 73.216 254.351 77.2693 251.791 80.512C249.231 83.6693 245.434 86.0587 240.399 87.68C235.364 89.216 229.092 89.984 221.583 89.984C210.404 89.984 201.914 88.192 196.111 84.608C190.394 81.024 187.535 75.6053 187.535 68.352C187.535 63.4027 188.815 59.3493 191.375 56.192C193.935 52.9493 197.732 50.5173 202.767 48.896C207.887 47.2747 214.159 46.464 221.583 46.464ZM221.583 61.696C219.876 61.696 218.554 62.208 217.615 63.232C216.676 64.256 216.207 65.92 216.207 68.224C216.207 70.528 216.676 72.192 217.615 73.216C218.554 74.24 219.876 74.752 221.583 74.752C223.29 74.752 224.612 74.24 225.551 73.216C226.49 72.192 226.959 70.528 226.959 68.224C226.959 65.92 226.49 64.256 225.551 63.232C224.612 62.208 223.29 61.696 221.583 61.696Z"
          fill="#02080D"/>
    <path d="M293.919 113.024C286.239 113.024 279.668 111.744 274.207 109.184C268.746 106.539 264.564 102.741 261.663 97.792C258.762 92.8427 257.311 86.8267 257.311 79.744C257.311 72.6613 258.762 66.6453 261.663 61.696C264.65 56.7467 268.788 52.992 274.079 50.432C279.455 47.7867 285.684 46.464 292.767 46.464C300.02 46.464 306.164 47.7867 311.199 50.432C316.319 52.992 320.202 56.6187 322.847 61.312C325.492 66.0053 326.815 71.4667 326.815 77.696C326.815 79.0613 326.73 80.4693 326.559 81.92C326.474 83.3707 326.346 84.5227 326.175 85.376H276.255V74.496H313.375L299.423 80C299.423 75.392 298.996 71.8933 298.143 69.504C297.375 67.1147 295.626 65.92 292.895 65.92C291.103 65.92 289.61 66.3467 288.415 67.2C287.306 68.0533 286.495 69.5467 285.983 71.68C285.471 73.728 285.215 76.5867 285.215 80.256C285.215 83.9253 285.556 86.7413 286.239 88.704C286.922 90.5813 287.903 91.8613 289.183 92.544C290.548 93.1413 292.255 93.44 294.303 93.44C296.522 93.44 298.228 92.9707 299.423 92.032C300.703 91.008 301.556 89.6427 301.983 87.936L325.663 94.336C324.724 98.5173 322.634 102.016 319.391 104.832C316.148 107.563 312.266 109.611 307.743 110.976C303.306 112.341 298.698 113.024 293.919 113.024Z"
          fill="#02080D"/>
    <path d="M366.121 25.984V85.632C366.121 88.5333 366.718 90.624 367.913 91.904C369.193 93.0987 371.156 93.696 373.801 93.696C375.508 93.696 377.001 93.568 378.281 93.312C379.561 93.056 380.756 92.6293 381.865 92.032L383.145 108.672C381.012 110.037 378.11 111.104 374.441 111.872C370.772 112.64 367.316 113.024 364.073 113.024C358.1 113.024 353.065 112.299 348.969 110.848C344.958 109.312 341.886 106.88 339.753 103.552C337.705 100.224 336.681 95.7867 336.681 90.24V34.176L366.121 25.984ZM382.249 47.744V67.584H326.825V47.744H382.249Z"
          fill="#02080D"/>
    <path d="M414.848 112.384C411.605 112.384 409.301 110.677 407.936 107.264C406.656 103.851 406.016 98.3893 406.016 90.88C406.016 79.7867 407.595 69.248 410.752 59.264C411.52 56.7893 412.757 54.9973 414.464 53.888C416.256 52.6933 418.731 52.096 421.888 52.096C423.595 52.096 424.789 52.3093 425.472 52.736C426.155 53.1627 426.496 53.9733 426.496 55.168C426.496 56.5333 425.856 59.6053 424.576 64.384C423.723 67.7973 423.04 70.784 422.528 73.344C422.016 75.8187 421.589 78.9333 421.248 82.688C423.552 76.032 426.283 70.4 429.44 65.792C432.683 61.184 435.968 57.7707 439.296 55.552C442.709 53.248 445.909 52.096 448.896 52.096C451.883 52.096 453.973 52.7787 455.168 54.144C456.448 55.5093 457.088 57.6 457.088 60.416C457.088 63.1467 456.277 68.096 454.656 75.264C453.973 78.336 453.504 80.64 453.248 82.176C457.515 71.68 462.251 64.0427 467.456 59.264C472.661 54.4853 477.525 52.096 482.048 52.096C487.595 52.096 490.368 54.8693 490.368 60.416C490.368 63.744 489.429 69.76 487.552 78.464C485.931 85.888 485.12 90.7947 485.12 93.184C485.12 96.5973 486.357 98.304 488.832 98.304C490.539 98.304 492.544 97.28 494.848 95.232C497.237 93.0987 500.395 89.6853 504.32 84.992C505.344 83.7973 506.496 83.2 507.776 83.2C508.885 83.2 509.739 83.712 510.336 84.736C511.019 85.76 511.36 87.168 511.36 88.96C511.36 92.3733 510.549 95.0187 508.928 96.896C505.259 101.419 501.291 105.131 497.024 108.032C492.843 110.933 488.064 112.384 482.688 112.384C478.336 112.384 475.051 111.147 472.832 108.672C470.613 106.112 469.504 102.443 469.504 97.664C469.504 95.2747 470.101 91.008 471.296 84.864C472.405 79.488 472.96 75.776 472.96 73.728C472.96 72.3627 472.491 71.68 471.552 71.68C470.443 71.68 468.864 73.1307 466.816 76.032C464.768 78.848 462.72 82.6027 460.672 87.296C458.624 91.9893 456.96 96.9387 455.68 102.144C454.741 106.24 453.632 108.971 452.352 110.336C451.157 111.701 449.195 112.384 446.464 112.384C443.648 112.384 441.515 111.061 440.064 108.416C438.699 105.685 438.016 102.4 438.016 98.56C438.016 95.3173 438.443 90.624 439.296 84.48C439.979 79.0187 440.32 75.4347 440.32 73.728C440.32 72.3627 439.851 71.68 438.912 71.68C437.632 71.68 436.011 73.216 434.048 76.288C432.085 79.36 430.165 83.2853 428.288 88.064C426.496 92.8427 425.045 97.536 423.936 102.144C422.997 106.155 421.888 108.885 420.608 110.336C419.413 111.701 417.493 112.384 414.848 112.384Z"
          fill="#02080D"/>
    <path d="M516.754 112.384C511.463 112.384 507.239 110.464 504.082 106.624C500.925 102.784 499.346 97.7493 499.346 91.52C499.346 84.6933 500.925 78.2507 504.082 72.192C507.239 66.048 511.421 61.1413 516.626 57.472C521.917 53.7173 527.506 51.84 533.394 51.84C535.271 51.84 536.509 52.224 537.106 52.992C537.789 53.6747 538.343 54.9547 538.77 56.832C540.562 56.4907 542.439 56.32 544.402 56.32C548.583 56.32 550.674 57.8133 550.674 60.8C550.674 62.592 550.034 66.8587 548.754 73.6C546.791 83.4133 545.81 90.24 545.81 94.08C545.81 95.36 546.109 96.384 546.706 97.152C547.389 97.92 548.242 98.304 549.266 98.304C550.887 98.304 552.85 97.28 555.154 95.232C557.458 93.0987 560.573 89.6853 564.498 84.992C565.522 83.7973 566.674 83.2 567.954 83.2C569.063 83.2 569.917 83.712 570.514 84.736C571.197 85.76 571.538 87.168 571.538 88.96C571.538 92.3733 570.727 95.0187 569.106 96.896C565.607 101.248 561.895 104.917 557.97 107.904C554.045 110.891 550.247 112.384 546.578 112.384C543.762 112.384 541.159 111.445 538.77 109.568C536.466 107.605 534.717 104.96 533.522 101.632C529.085 108.8 523.495 112.384 516.754 112.384ZM521.362 99.456C523.239 99.456 525.031 98.3467 526.738 96.128C528.445 93.9093 529.682 90.9653 530.45 87.296L535.186 63.744C531.602 63.8293 528.274 65.1947 525.202 67.84C522.215 70.4 519.826 73.8133 518.034 78.08C516.242 82.3467 515.346 86.8693 515.346 91.648C515.346 94.2933 515.858 96.256 516.882 97.536C517.991 98.816 519.485 99.456 521.362 99.456Z"
          fill="#02080D"/>
    <path d="M618.223 83.2C619.332 83.2 620.186 83.712 620.783 84.736C621.466 85.76 621.807 87.168 621.807 88.96C621.807 92.3733 620.996 95.0187 619.375 96.896C615.706 101.419 611.695 105.131 607.343 108.032C602.991 110.933 597.999 112.384 592.367 112.384C574.959 112.384 566.255 100.139 566.255 75.648C566.255 71.8933 566.383 68.096 566.639 64.256H561.647C559.087 64.256 557.338 63.7867 556.399 62.848C555.546 61.9093 555.119 60.416 555.119 58.368C555.119 53.5893 557.039 51.2 560.879 51.2H568.175C569.626 41.8133 571.844 33.2373 574.831 25.472C577.818 17.7067 581.402 11.52 585.583 6.91199C589.85 2.304 594.415 0 599.279 0C602.863 0 605.679 1.57867 607.727 4.736C609.775 7.89333 610.799 11.8613 610.799 16.64C610.799 29.8667 605.252 41.3867 594.159 51.2H608.495C609.86 51.2 610.842 51.4987 611.439 52.096C612.036 52.6933 612.335 53.8027 612.335 55.424C612.335 61.312 607.514 64.256 597.871 64.256H582.255C582.084 68.5227 581.999 71.8507 581.999 74.24C581.999 83.1147 583.023 89.344 585.071 92.928C587.204 96.512 590.532 98.304 595.055 98.304C598.724 98.304 601.967 97.1947 604.783 94.976C607.599 92.7573 610.927 89.4293 614.767 84.992C615.791 83.7973 616.943 83.2 618.223 83.2ZM595.823 12.288C594.543 12.288 593.092 13.9093 591.471 17.152C589.935 20.3093 588.442 24.7467 586.991 30.464C585.626 36.096 584.474 42.368 583.535 49.28C588.57 44.928 592.324 40.064 594.799 34.688C597.359 29.2267 598.639 24.2773 598.639 19.84C598.639 14.8053 597.7 12.288 595.823 12.288Z"
          fill="#02080D"/>
    <path d="M657.209 87.04C658.318 87.04 659.172 87.552 659.769 88.576C660.452 89.6 660.793 91.008 660.793 92.8C660.793 95.872 660.068 98.5173 658.617 100.736C656.228 104.405 653.07 107.264 649.145 109.312C645.305 111.36 640.697 112.384 635.321 112.384C627.129 112.384 620.772 109.952 616.249 105.088C611.726 100.139 609.465 93.4827 609.465 85.12C609.465 79.232 610.702 73.7707 613.177 68.736C615.652 63.616 619.065 59.5627 623.417 56.576C627.854 53.5893 632.846 52.096 638.393 52.096C643.342 52.096 647.31 53.5893 650.297 56.576C653.284 59.4773 654.777 63.4453 654.777 68.48C654.777 74.368 652.644 79.4453 648.377 83.712C644.196 87.8933 637.028 91.2213 626.873 93.696C628.921 97.6213 632.377 99.584 637.241 99.584C640.74 99.584 643.598 98.7733 645.817 97.152C648.121 95.5307 650.766 92.8 653.753 88.96C654.777 87.68 655.929 87.04 657.209 87.04ZM636.217 64.64C633.06 64.64 630.372 66.4747 628.153 70.144C626.02 73.8133 624.953 78.2507 624.953 83.456V83.712C629.988 82.5173 633.956 80.7253 636.857 78.336C639.758 75.9467 641.209 73.1733 641.209 70.016C641.209 68.3947 640.74 67.1147 639.801 66.176C638.948 65.152 637.753 64.64 636.217 64.64Z"
          fill="#02080D"/>
</svg>
