<svg width="172" height="32" viewBox="0 0 172 32" fill="none" xmlns="http://www.w3.org/2000/svg">
<path d="M98.8959 7.45895V9.20007H90.6621V7.45895H98.8959ZM93.2345 3.3252H95.2452V20.2084C95.2452 20.9273 95.3687 21.4927 95.6159 21.9046C95.863 22.309 96.185 22.5973 96.5819 22.7696C96.9788 22.9343 97.4019 23.0167 97.8512 23.0167C98.1133 23.0167 98.338 23.0017 98.5252 22.9717C98.7124 22.9343 98.8772 22.8969 99.0195 22.8594L99.4463 24.6679C99.2516 24.7428 99.012 24.8102 98.7274 24.8701C98.4428 24.9375 98.0909 24.9712 97.6715 24.9712C96.9376 24.9712 96.2299 24.8102 95.5485 24.4882C94.8745 24.1662 94.3203 23.6869 93.886 23.0504C93.4516 22.4138 93.2345 21.6238 93.2345 20.6802V3.3252Z" fill="#E57CD8"/>
<path d="M107.307 25.106C106.266 25.106 105.315 24.9038 104.454 24.4994C103.592 24.0876 102.907 23.496 102.398 22.7246C101.889 21.9458 101.634 21.0022 101.634 19.8939C101.634 19.0402 101.795 18.3213 102.117 17.7372C102.439 17.153 102.896 16.6738 103.488 16.2993C104.079 15.9249 104.779 15.6291 105.588 15.4119C106.397 15.1948 107.288 15.0263 108.262 14.9064C109.228 14.7866 110.044 14.6818 110.71 14.5919C111.384 14.5021 111.897 14.3598 112.249 14.1651C112.601 13.9704 112.777 13.6558 112.777 13.2215V12.8171C112.777 11.6414 112.425 10.7165 111.721 10.0425C111.025 9.36107 110.022 9.02034 108.711 9.02034C107.468 9.02034 106.453 9.29367 105.667 9.84035C104.888 10.387 104.341 11.031 104.027 11.7724L102.128 11.0872C102.518 10.1436 103.057 9.39103 103.746 8.82938C104.435 8.26024 105.206 7.8521 106.06 7.60498C106.914 7.35036 107.779 7.22305 108.655 7.22305C109.314 7.22305 109.999 7.30917 110.71 7.48141C111.429 7.65365 112.096 7.9532 112.71 8.38005C113.324 8.79942 113.822 9.38728 114.204 10.1436C114.586 10.8925 114.777 11.8436 114.777 12.9968V24.7129H112.777V21.9832H112.654C112.414 22.4925 112.058 22.9867 111.587 23.466C111.115 23.9453 110.523 24.3384 109.812 24.6455C109.1 24.9525 108.265 25.106 107.307 25.106ZM107.576 23.275C108.64 23.275 109.561 23.0391 110.34 22.5674C111.119 22.0956 111.718 21.4703 112.137 20.6914C112.564 19.9051 112.777 19.0402 112.777 18.0966V15.6029C112.628 15.7452 112.377 15.8725 112.025 15.9848C111.68 16.0971 111.28 16.1982 110.823 16.2881C110.373 16.3705 109.924 16.4416 109.475 16.5015C109.026 16.5614 108.621 16.6139 108.262 16.6588C107.288 16.7786 106.457 16.9658 105.768 17.2204C105.079 17.4751 104.551 17.827 104.184 18.2763C103.817 18.7182 103.634 19.2873 103.634 19.9838C103.634 21.0322 104.008 21.8447 104.757 22.4213C105.506 22.9905 106.446 23.275 107.576 23.275Z" fill="#E57CD8"/>
<path d="M119.147 24.7129V7.45895H121.09V10.1099H121.236C121.581 9.24125 122.18 8.54106 123.033 8.00936C123.895 7.47018 124.868 7.20059 125.954 7.20059C126.119 7.20059 126.302 7.20433 126.504 7.21182C126.707 7.21931 126.875 7.2268 127.01 7.23429V9.26746C126.92 9.25249 126.763 9.23002 126.538 9.20007C126.313 9.17011 126.07 9.15513 125.808 9.15513C124.909 9.15513 124.108 9.34609 123.404 9.72802C122.708 10.1025 122.157 10.6229 121.753 11.2894C121.348 11.9559 121.146 12.716 121.146 13.5697V24.7129H119.147Z" fill="#E57CD8"/>
<path d="M135.53 31.5425C134.355 31.5425 133.325 31.389 132.441 31.082C131.558 30.7824 130.812 30.3706 130.206 29.8464C129.599 29.3222 129.127 28.7343 128.79 28.0828L130.43 27.0044C130.678 27.4387 131.007 27.8656 131.419 28.285C131.838 28.7043 132.381 29.0526 133.048 29.3296C133.722 29.6067 134.549 29.7453 135.53 29.7453C137.058 29.7453 138.29 29.3633 139.226 28.5995C140.17 27.8356 140.641 26.6487 140.641 25.0386V21.152H140.462C140.229 21.6762 139.896 22.2004 139.462 22.7246C139.027 23.2413 138.458 23.6719 137.754 24.0164C137.058 24.3609 136.193 24.5331 135.16 24.5331C133.782 24.5331 132.557 24.1924 131.486 23.5109C130.423 22.8295 129.584 21.8559 128.97 20.5903C128.364 19.3173 128.06 17.8008 128.06 16.041C128.06 14.2961 128.356 12.7609 128.948 11.4354C129.547 10.1099 130.382 9.0765 131.453 8.33512C132.524 7.59374 133.77 7.22305 135.193 7.22305C136.249 7.22305 137.125 7.41027 137.822 7.78471C138.518 8.15165 139.076 8.60846 139.496 9.15513C139.922 9.70181 140.256 10.2335 140.495 10.7502H140.697V7.45895H142.652V25.1622C142.652 26.6225 142.341 27.8244 141.72 28.768C141.098 29.7116 140.252 30.408 139.181 30.8573C138.11 31.3141 136.893 31.5425 135.53 31.5425ZM135.395 22.7022C136.504 22.7022 137.451 22.4363 138.237 21.9046C139.024 21.3654 139.627 20.5941 140.046 19.5906C140.465 18.5871 140.675 17.3927 140.675 16.0073C140.675 14.6593 140.469 13.4649 140.057 12.4239C139.645 11.3755 139.046 10.5518 138.26 9.95268C137.481 9.34609 136.526 9.0428 135.395 9.0428C134.242 9.0428 133.269 9.35358 132.475 9.97514C131.681 10.5967 131.082 11.4354 130.678 12.4913C130.273 13.5398 130.071 14.7117 130.071 16.0073C130.071 17.3253 130.277 18.4898 130.689 19.5007C131.101 20.5042 131.704 21.2905 132.497 21.8597C133.291 22.4213 134.257 22.7022 135.395 22.7022Z" fill="#E57CD8"/>
<path d="M153.972 25.0723C152.362 25.0723 150.969 24.6979 149.794 23.949C148.618 23.1927 147.708 22.148 147.064 20.815C146.427 19.4745 146.109 17.9319 146.109 16.187C146.109 14.4496 146.427 12.907 147.064 11.559C147.708 10.2035 148.595 9.1439 149.726 8.38005C150.865 7.60872 152.179 7.22305 153.669 7.22305C154.605 7.22305 155.507 7.39529 156.376 7.73977C157.245 8.07676 158.024 8.59723 158.713 9.30116C159.409 9.99761 159.96 10.8775 160.364 11.9409C160.768 12.9968 160.97 14.2474 160.97 15.6928V16.6813H147.491V14.9177H158.926C158.926 13.8093 158.701 12.8134 158.252 11.9297C157.81 11.0385 157.192 10.3346 156.399 9.81788C155.612 9.30116 154.702 9.0428 153.669 9.0428C152.576 9.0428 151.613 9.33486 150.782 9.91898C149.951 10.5031 149.299 11.2744 148.828 12.233C148.363 13.1915 148.127 14.2399 148.12 15.3782V16.4341C148.12 17.8046 148.356 19.0027 148.828 20.0287C149.307 21.0472 149.985 21.8372 150.861 22.3989C151.737 22.9605 152.774 23.2413 153.972 23.2413C154.789 23.2413 155.504 23.114 156.118 22.8594C156.739 22.6048 157.26 22.2641 157.679 21.8372C158.106 21.4029 158.428 20.9273 158.645 20.4106L160.544 21.0284C160.282 21.7548 159.851 22.4251 159.252 23.0391C158.66 23.6532 157.919 24.1475 157.028 24.5219C156.144 24.8889 155.126 25.0723 153.972 25.0723Z" fill="#E57CD8"/>
<path d="M171.224 7.45895V9.20007H162.99V7.45895H171.224ZM165.562 3.3252H167.573V20.2084C167.573 20.9273 167.696 21.4927 167.944 21.9046C168.191 22.309 168.513 22.5973 168.91 22.7696C169.307 22.9343 169.73 23.0167 170.179 23.0167C170.441 23.0167 170.666 23.0017 170.853 22.9717C171.04 22.9343 171.205 22.8969 171.347 22.8594L171.774 24.6679C171.579 24.7428 171.34 24.8102 171.055 24.8701C170.771 24.9375 170.419 24.9712 169.999 24.9712C169.265 24.9712 168.558 24.8102 167.876 24.4882C167.202 24.1662 166.648 23.6869 166.214 23.0504C165.779 22.4138 165.562 21.6238 165.562 20.6802V3.3252Z" fill="#E57CD8"/>
<path d="M44.4566 11.192C44.6221 11.0164 44.8207 10.8752 45.0409 10.7767C45.2612 10.6782 45.4988 10.6243 45.74 10.618C45.9812 10.6117 46.2213 10.6532 46.4464 10.7401C46.6715 10.827 46.8772 10.9576 47.0516 11.1244C47.226 11.2911 47.3657 11.4908 47.4626 11.7117C47.5595 11.9327 47.6117 12.1707 47.6163 12.4119C47.6208 12.6532 47.5776 12.893 47.489 13.1174C47.4005 13.3419 47.2684 13.5466 47.1004 13.7198C46.7643 14.0663 46.3047 14.2659 45.822 14.275C45.3393 14.2841 44.8726 14.1019 44.5237 13.7683C44.1747 13.4347 43.9718 12.9766 43.9593 12.4939C43.9467 12.0113 44.1255 11.5433 44.4566 11.192ZM54.9358 27.284C54.8872 25.8743 54.4699 24.3854 53.4052 23.402C52.2166 22.3046 50.4967 21.801 48.8977 21.801H41.7701C41.0663 21.801 40.4437 21.2756 40.4437 20.6273C40.4437 20.092 40.8065 19.6261 41.324 19.4923C41.322 19.4913 41.4459 19.4605 41.5768 19.4179C42.8775 20.0174 44.2953 20.3202 45.7274 20.3041C47.9252 20.3041 50.1269 19.6618 51.7398 18.1629C53.311 16.7027 54.0446 14.6616 54.0446 12.5719C54.0446 10.4822 53.311 8.44304 51.7398 6.98382C51.2815 6.55871 50.7708 6.19392 50.2201 5.89833C51.7338 6.24727 53.2961 5.81506 54.3707 3.97121L51.3423 1.80717L48.8174 5.30453C47.8176 4.99108 46.7752 4.83458 45.7274 4.8406C43.5307 4.8406 41.327 5.48297 39.7141 6.98184C38.1439 8.44205 37.4113 10.4832 37.4113 12.5709C37.4113 14.6586 38.1439 16.7017 39.7141 18.1619C39.8519 18.2878 39.9917 18.4078 40.1374 18.5227L39.842 18.6784C39.1018 19.1023 38.4301 19.6357 37.8494 20.2605C36.8542 21.3143 35.8589 22.8925 35.8589 24.9931C35.8589 24.9931 35.7201 29.4738 40.8948 29.4738H44.6429C45.5054 29.4738 46.3857 30.019 46.3857 30.8765C46.3857 31.1769 46.2984 31.4703 46.1349 31.7211H53.3041C54.3843 30.4982 54.9666 28.9145 54.9358 27.283M62.6482 11.19C62.9058 10.943 63.2304 10.7771 63.5815 10.713C63.9326 10.6489 64.2948 10.6894 64.6231 10.8295C64.9513 10.9695 65.2312 11.2029 65.428 11.5007C65.6247 11.7985 65.7296 12.1476 65.7296 12.5045C65.7296 12.8614 65.6247 13.2104 65.428 13.5082C65.2312 13.806 64.9513 14.0394 64.6231 14.1795C64.2948 14.3195 63.9326 14.36 63.5815 14.2959C63.2304 14.2318 62.9058 14.066 62.6482 13.8189C62.323 13.4584 62.1431 12.99 62.1431 12.5045C62.1431 12.0189 62.323 11.5506 62.6482 11.19ZM75.347 27.283C75.2994 25.8734 74.8811 24.3844 73.8174 23.401C72.6278 22.3036 70.9079 21.8 69.3109 21.8L61.0373 21.7406C60.5149 21.7406 60.1174 21.4154 60.1174 20.9336C60.1174 20.5371 60.3147 19.9463 60.8153 19.8481C61.8046 20.1554 62.8346 20.3081 63.8705 20.3031C66.0693 20.3031 68.272 19.6608 69.8838 18.1619C71.4541 16.7017 72.1877 14.6606 72.1877 12.5709C72.1877 10.4812 71.4541 8.44205 69.8838 6.98283C69.4252 6.558 68.9142 6.19354 68.3632 5.89833C69.8769 6.24727 71.4392 5.81506 72.5138 3.97121L69.4873 1.80717L66.9604 5.30453C65.9606 4.99108 64.9183 4.83458 63.8705 4.8406C61.6738 4.8406 59.4701 5.48297 57.8572 6.98184C56.2889 8.44205 55.5544 10.4832 55.5544 12.5709C55.5544 14.6586 56.2879 16.7017 57.8572 18.1619C58.3181 18.5882 58.8326 18.953 59.3868 19.2484C58.9843 19.5537 58.6086 19.8927 58.2626 20.2595C57.2654 21.3143 56.2701 22.8925 56.2701 24.9931C56.2701 24.9931 56.1323 29.4738 61.307 29.4738H65.0551C65.9186 29.4738 66.7959 30.019 66.7959 30.8765C66.7959 31.1769 66.7106 31.4693 66.5471 31.7211H73.7153C74.7962 30.4986 75.3786 28.9146 75.347 27.283ZM84.023 24.9832V18.2957C82.4775 18.491 81.9412 17.4065 81.9412 16.3319V0H74.2823V17.5532C74.2823 19.7322 74.6094 21.5502 75.3995 22.6952C76.6129 24.4359 78.2575 25.575 81.5259 25.5898C82.1286 25.5621 83.1358 25.4441 84.023 24.9851M27.6518 16.8504C27.2555 17.2881 26.7186 17.5733 26.1341 17.6566C25.5496 17.7399 24.9543 17.6161 24.4515 17.3066C23.9488 16.9971 23.5701 16.5214 23.3812 15.962C23.1924 15.4026 23.2052 14.7948 23.4174 14.2438C23.6297 13.6929 24.0281 13.2336 24.5434 12.9456C25.0588 12.6575 25.6587 12.5589 26.2392 12.6667C26.8197 12.7746 27.3441 13.0822 27.7216 13.5362C28.0991 13.9901 28.3059 14.5619 28.306 15.1523C28.3213 15.7826 28.086 16.3932 27.6518 16.8504ZM33.3588 7.76002C31.3811 5.75261 28.6808 4.89413 25.9874 4.89413C23.293 4.89413 20.5906 5.75261 18.6139 7.76002C16.6878 9.71391 15.7887 12.446 15.7887 15.2405C15.7887 18.036 16.6878 20.7691 18.6139 22.723C20.5896 24.7294 23.291 25.5888 25.9874 25.5888C28.6827 25.5888 31.3811 24.7294 33.3588 22.7239C35.2839 20.7691 36.184 18.037 36.184 15.2405C36.184 12.445 35.2839 9.71391 33.3588 7.76002ZM12.9337 18.3235C11.6599 18.3235 11.1394 17.9349 10.6685 17.3401C10.3622 16.9515 10.2106 16.3805 10.2106 15.64V12.1773H14.4861V5.97169H10.2106V0H4.74841V2.23344C4.74841 4.70578 2.85301 6.71022 0.517467 6.71022C0.344475 6.7098 0.171668 6.69888 0 6.67751L0 12.1773H2.86887V17.7059C2.86887 19.8828 3.26341 21.5582 4.0525 22.7011C5.27182 24.4478 6.62199 25.5888 9.92209 25.5888C11.8353 25.5888 13.4353 25.1527 14.4861 24.5698V18.0667C13.9881 18.2443 13.4623 18.3313 12.9337 18.3235Z" fill="#E57CD8"/>
</svg>
