<svg width="196" height="196" viewBox="0 0 196 196" fill="none" xmlns="http://www.w3.org/2000/svg">
<path d="M95.1286 134.329C93.2176 136.24 90.7088 137.2 88.2 137.2C85.6912 137.2 83.1824 136.24 81.2714 134.329L42.0714 95.1286C38.2396 91.2968 38.2396 85.1032 42.0714 81.2714C45.9032 77.4396 52.0968 77.4396 55.9286 81.2714L88.2 113.543L170.03 31.7128C152.125 12.2598 126.528 0 98 0C43.8746 0 0 43.8746 0 98C0 152.125 43.8746 196 98 196C152.125 196 196 152.125 196 98C196 79.527 190.796 62.3084 181.908 47.5496L95.1286 134.329Z" fill="white"/>
</svg>
