<svg width="348" height="65" viewBox="0 0 348 65" fill="none" xmlns="http://www.w3.org/2000/svg">
<path d="M200.091 15.0909V18.6137H183.432V15.0909H200.091ZM188.636 6.72729H192.704V40.8864C192.704 42.3409 192.954 43.4849 193.454 44.3182C193.954 45.1364 194.606 45.7197 195.409 46.0682C196.212 46.4015 197.068 46.5682 197.977 46.5682C198.507 46.5682 198.962 46.5379 199.341 46.4773C199.72 46.4015 200.053 46.3258 200.341 46.25L201.204 49.9091C200.81 50.0606 200.326 50.197 199.75 50.3182C199.174 50.4546 198.462 50.5228 197.613 50.5228C196.129 50.5228 194.697 50.197 193.318 49.5455C191.954 48.894 190.833 47.9243 189.954 46.6364C189.076 45.3485 188.636 43.75 188.636 41.8409V6.72729Z" fill="#2196F3"/>
<path d="M217.108 50.7955C215.002 50.7955 213.078 50.3864 211.336 49.5682C209.593 48.7349 208.207 47.5379 207.176 45.9773C206.146 44.4015 205.631 42.4924 205.631 40.25C205.631 38.5228 205.957 37.0682 206.608 35.8864C207.26 34.7046 208.184 33.7349 209.381 32.9773C210.578 32.2197 211.995 31.6212 213.631 31.1818C215.267 30.7424 217.07 30.4015 219.04 30.1591C220.995 29.9167 222.646 29.7046 223.995 29.5227C225.358 29.3409 226.396 29.0531 227.108 28.6591C227.82 28.2652 228.176 27.6288 228.176 26.75V25.9318C228.176 23.5531 227.464 21.6818 226.04 20.3182C224.631 18.9394 222.601 18.25 219.949 18.25C217.434 18.25 215.381 18.8031 213.79 19.9091C212.214 21.0152 211.108 22.3182 210.472 23.8182L206.631 22.4318C207.419 20.5227 208.51 19 209.904 17.8637C211.298 16.7121 212.858 15.8864 214.586 15.3864C216.313 14.8712 218.063 14.6137 219.836 14.6137C221.169 14.6137 222.555 14.7879 223.995 15.1364C225.449 15.4849 226.798 16.0909 228.04 16.9546C229.282 17.8031 230.29 18.9924 231.063 20.5227C231.836 22.0379 232.222 23.9621 232.222 26.2955V50H228.176V44.4773H227.926C227.442 45.5076 226.722 46.5076 225.767 47.4773C224.813 48.447 223.616 49.2424 222.176 49.8637C220.737 50.4849 219.048 50.7955 217.108 50.7955ZM217.654 47.0909C219.805 47.0909 221.669 46.6137 223.245 45.6591C224.82 44.7046 226.032 43.4394 226.881 41.8637C227.745 40.2727 228.176 38.5227 228.176 36.6137V31.5682C227.873 31.8561 227.366 32.1137 226.654 32.3409C225.957 32.5682 225.146 32.7727 224.222 32.9546C223.313 33.1212 222.404 33.2652 221.495 33.3864C220.586 33.5076 219.767 33.6137 219.04 33.7046C217.07 33.947 215.389 34.3258 213.995 34.8409C212.601 35.3561 211.532 36.0682 210.79 36.9773C210.048 37.8712 209.676 39.0227 209.676 40.4318C209.676 42.5531 210.434 44.197 211.949 45.3637C213.464 46.5152 215.366 47.0909 217.654 47.0909Z" fill="#2196F3"/>
<path d="M241.063 50V15.0909H244.995V20.4546H245.291C245.987 18.697 247.2 17.2803 248.927 16.2046C250.669 15.1137 252.639 14.5682 254.836 14.5682C255.169 14.5682 255.541 14.5758 255.95 14.5909C256.359 14.6061 256.7 14.6212 256.972 14.6364V18.75C256.791 18.7197 256.472 18.6743 256.018 18.6137C255.563 18.5531 255.071 18.5227 254.541 18.5227C252.722 18.5227 251.101 18.9091 249.677 19.6818C248.268 20.4394 247.154 21.4924 246.336 22.8409C245.518 24.1894 245.109 25.7273 245.109 27.4546V50H241.063Z" fill="#2196F3"/>
<path d="M274.211 63.8182C271.833 63.8182 269.749 63.5076 267.961 62.8864C266.174 62.2803 264.666 61.447 263.439 60.3864C262.211 59.3258 261.257 58.1364 260.575 56.8182L263.893 54.6364C264.393 55.5152 265.06 56.3788 265.893 57.2273C266.742 58.0758 267.84 58.7803 269.189 59.3409C270.552 59.9015 272.227 60.1818 274.211 60.1818C277.302 60.1818 279.795 59.4091 281.689 57.8637C283.598 56.3182 284.552 53.9167 284.552 50.6591V42.7955H284.189C283.719 43.8561 283.045 44.9167 282.166 45.9773C281.287 47.0227 280.136 47.894 278.711 48.5909C277.302 49.2879 275.552 49.6364 273.461 49.6364C270.674 49.6364 268.196 48.947 266.03 47.5682C263.878 46.1894 262.181 44.2197 260.939 41.6591C259.711 39.0834 259.098 36.0152 259.098 32.4546C259.098 28.9243 259.696 25.8182 260.893 23.1364C262.105 20.4546 263.795 18.3637 265.961 16.8637C268.128 15.3637 270.651 14.6137 273.53 14.6137C275.666 14.6137 277.439 14.9924 278.848 15.75C280.257 16.4924 281.386 17.4167 282.234 18.5227C283.098 19.6288 283.772 20.7046 284.257 21.75H284.666V15.0909H288.621V50.9091C288.621 53.8637 287.992 56.2955 286.734 58.2046C285.477 60.1137 283.764 61.5228 281.598 62.4318C279.431 63.3561 276.969 63.8182 274.211 63.8182ZM273.939 45.9318C276.181 45.9318 278.098 45.394 279.689 44.3182C281.28 43.2273 282.499 41.6667 283.348 39.6364C284.196 37.6061 284.62 35.1894 284.62 32.3864C284.62 29.6591 284.204 27.2424 283.37 25.1364C282.537 23.0152 281.325 21.3485 279.734 20.1364C278.158 18.9091 276.227 18.2955 273.939 18.2955C271.605 18.2955 269.636 18.9243 268.03 20.1818C266.424 21.4394 265.211 23.1364 264.393 25.2727C263.575 27.394 263.166 29.7652 263.166 32.3864C263.166 35.0531 263.583 37.4091 264.416 39.4546C265.249 41.4849 266.469 43.0758 268.075 44.2273C269.681 45.3637 271.636 45.9318 273.939 45.9318Z" fill="#2196F3"/>
<path d="M311.524 50.7273C308.267 50.7273 305.449 49.9697 303.07 48.4546C300.691 46.9243 298.85 44.8106 297.547 42.1137C296.259 39.4015 295.615 36.2803 295.615 32.75C295.615 29.2349 296.259 26.1137 297.547 23.3864C298.85 20.644 300.646 18.5 302.933 16.9546C305.236 15.394 307.896 14.6137 310.911 14.6137C312.805 14.6137 314.63 14.9621 316.388 15.6591C318.146 16.3409 319.721 17.394 321.115 18.8182C322.524 20.2273 323.638 22.0076 324.456 24.1591C325.274 26.2955 325.683 28.8258 325.683 31.75V33.75H298.411V30.1818H321.547C321.547 27.9394 321.093 25.9243 320.183 24.1364C319.29 22.3334 318.04 20.9091 316.433 19.8637C314.843 18.8182 313.002 18.2955 310.911 18.2955C308.699 18.2955 306.752 18.8864 305.07 20.0682C303.388 21.25 302.07 22.8106 301.115 24.75C300.176 26.6894 299.699 28.8106 299.683 31.1137V33.25C299.683 36.0228 300.161 38.447 301.115 40.5228C302.085 42.5834 303.456 44.1818 305.229 45.3182C307.002 46.4546 309.1 47.0228 311.524 47.0228C313.176 47.0228 314.623 46.7652 315.865 46.25C317.123 45.7349 318.176 45.0455 319.024 44.1818C319.888 43.3031 320.54 42.3409 320.979 41.2955L324.82 42.5455C324.29 44.0152 323.418 45.3712 322.206 46.6137C321.009 47.8561 319.509 48.8561 317.706 49.6137C315.918 50.3561 313.858 50.7273 311.524 50.7273Z" fill="#2196F3"/>
<path d="M346.428 15.0909V18.6137H329.769V15.0909H346.428ZM334.974 6.72729H339.042V40.8864C339.042 42.3409 339.292 43.4849 339.792 44.3182C340.292 45.1364 340.943 45.7197 341.746 46.0682C342.549 46.4015 343.405 46.5682 344.315 46.5682C344.845 46.5682 345.299 46.5379 345.678 46.4773C346.057 46.4015 346.39 46.3258 346.678 46.25L347.542 49.9091C347.148 50.0606 346.663 50.197 346.087 50.3182C345.512 50.4546 344.799 50.5228 343.951 50.5228C342.466 50.5228 341.034 50.197 339.656 49.5455C338.292 48.894 337.171 47.9243 336.292 46.6364C335.413 45.3485 334.974 43.75 334.974 41.8409V6.72729Z" fill="#2196F3"/>
<path d="M89.947 22.6442C90.2819 22.2889 90.6837 22.0034 91.1293 21.8041C91.575 21.6048 92.0557 21.4956 92.5438 21.4829C93.0318 21.4702 93.5175 21.5542 93.973 21.73C94.4284 21.9059 94.8445 22.1701 95.1974 22.5075C95.5503 22.8449 95.8329 23.2487 96.029 23.6958C96.2251 24.1429 96.3307 24.6244 96.3399 25.1125C96.3491 25.6006 96.2616 26.0858 96.0825 26.5399C95.9034 26.9941 95.6361 27.4083 95.2962 27.7587C94.6161 28.4598 93.6863 28.8636 92.7097 28.882C91.7331 28.9003 90.7888 28.5318 90.0828 27.8568C89.3768 27.1817 88.9663 26.2549 88.9409 25.2785C88.9154 24.302 89.2771 23.3551 89.947 22.6442ZM111.149 55.2025C111.051 52.3504 110.206 49.3379 108.052 47.3482C105.648 45.1279 102.168 44.1091 98.9325 44.1091H84.5116C83.0876 44.1091 81.828 43.046 81.828 41.7343C81.828 40.6513 82.5621 39.7086 83.6091 39.4378C83.605 39.4358 83.8558 39.3736 84.1205 39.2874C86.7522 40.5004 89.6207 41.1129 92.5183 41.0805C96.9649 41.0805 101.42 39.7808 104.683 36.7482C107.862 33.7938 109.346 29.6641 109.346 25.4361C109.346 21.2081 107.862 17.0824 104.683 14.1301C103.756 13.2699 102.722 12.5319 101.608 11.9338C104.671 12.6398 107.832 11.7654 110.006 8.03478L103.879 3.65637L98.77 10.7324C96.7472 10.0982 94.6382 9.78159 92.5183 9.79377C88.0737 9.79377 83.6151 11.0935 80.3518 14.1261C77.1748 17.0804 75.6926 21.2101 75.6926 25.4341C75.6926 29.6581 77.1748 33.7918 80.3518 36.7462C80.6306 37.0009 80.9134 37.2436 81.2082 37.4763L80.6106 37.7911C79.113 38.6488 77.7539 39.728 76.5791 40.9922C74.5654 43.1243 72.5517 46.3173 72.5517 50.5674C72.5517 50.5674 72.2709 59.6331 82.7406 59.6331H90.3241C92.069 59.6331 93.8501 60.7362 93.8501 62.4711C93.8501 63.0788 93.6736 63.6725 93.3427 64.18H107.848C110.033 61.7056 111.211 58.5014 111.149 55.2005M126.753 22.6402C127.275 22.1404 127.931 21.8049 128.642 21.6752C129.352 21.5455 130.085 21.6274 130.749 21.9108C131.413 22.1941 131.979 22.6664 132.378 23.2689C132.776 23.8714 132.988 24.5776 132.988 25.2997C132.988 26.0218 132.776 26.728 132.378 27.3306C131.979 27.9331 131.413 28.4053 130.749 28.6887C130.085 28.972 129.352 29.054 128.642 28.9243C127.931 28.7946 127.275 28.459 126.753 27.9593C126.095 27.2297 125.731 26.2821 125.731 25.2997C125.731 24.3173 126.095 23.3698 126.753 22.6402ZM152.446 55.2005C152.35 52.3484 151.504 49.3359 149.351 47.3462C146.945 45.1259 143.465 44.1071 140.234 44.1071L123.494 43.9867C122.437 43.9867 121.633 43.3288 121.633 42.3541C121.633 41.5518 122.032 40.3564 123.045 40.1579C125.047 40.7796 127.13 41.0885 129.226 41.0785C133.675 41.0785 138.132 39.7788 141.393 36.7462C144.57 33.7918 146.054 29.6621 146.054 25.4341C146.054 21.2061 144.57 17.0804 141.393 14.1281C140.465 13.2685 139.431 12.5311 138.316 11.9338C141.379 12.6398 144.54 11.7654 146.714 8.03478L140.591 3.65637L135.478 10.7324C133.455 10.0982 131.346 9.78159 129.226 9.79377C124.782 9.79377 120.323 11.0935 117.06 14.1261C113.887 17.0804 112.401 21.2101 112.401 25.4341C112.401 29.6581 113.885 33.7918 117.06 36.7462C117.993 37.6086 119.034 38.3467 120.155 38.9444C119.34 39.5622 118.58 40.2481 117.88 40.9902C115.863 43.1243 113.849 46.3173 113.849 50.5674C113.849 50.5674 113.57 59.6331 124.04 59.6331H131.623C133.37 59.6331 135.145 60.7362 135.145 62.4711C135.145 63.0788 134.973 63.6705 134.642 64.18H149.145C151.332 61.7064 152.51 58.5016 152.446 55.2005ZM170 50.5473V37.0169C166.873 37.4121 165.788 35.2179 165.788 33.0437V0H150.292V35.5147C150.292 39.9232 150.954 43.6016 152.553 45.9182C155.007 49.4402 158.335 51.7447 164.948 51.7748C166.167 51.7186 168.205 51.48 170 50.5513M55.9466 34.0927C55.1448 34.9782 54.0585 35.5552 52.8759 35.7238C51.6933 35.8923 50.489 35.6418 49.4717 35.0156C48.4545 34.3894 47.6884 33.427 47.3062 32.2952C46.9241 31.1634 46.95 29.9336 47.3795 28.8189C47.809 27.7043 48.6149 26.775 49.6577 26.1922C50.7004 25.6094 51.9142 25.4098 53.0886 25.6281C54.2631 25.8463 55.3242 26.4686 56.0879 27.3871C56.8517 28.3056 57.27 29.4624 57.2704 30.6569C57.3012 31.9322 56.8252 33.1677 55.9466 34.0927ZM67.4934 15.7005C63.492 11.639 58.0285 9.90207 52.5791 9.90207C47.1276 9.90207 41.6601 11.639 37.6608 15.7005C33.7637 19.6537 31.9446 25.1814 31.9446 30.8354C31.9446 36.4915 33.7637 42.0211 37.6608 45.9743C41.6581 50.0339 47.1236 51.7728 52.5791 51.7728C58.0325 51.7728 63.492 50.0339 67.4934 45.9764C71.3884 42.0211 73.2096 36.4935 73.2096 30.8354C73.2096 25.1794 71.3884 19.6537 67.4934 15.7005ZM26.1682 37.0731C23.5909 37.0731 22.5379 36.2869 21.5852 35.0835C20.9654 34.2972 20.6586 33.142 20.6586 31.6437V24.6379H29.3091V12.0823H20.6586V0H9.60724V4.51881C9.60724 9.52099 5.77237 13.5765 1.04697 13.5765C0.696961 13.5756 0.347328 13.5535 0 13.5103L0 24.6379H5.80446V35.8236C5.80446 40.2281 6.60272 43.6177 8.19925 45.9302C10.6662 49.4642 13.398 51.7728 20.0749 51.7728C23.9459 51.7728 27.1831 50.8903 29.3091 49.7109V36.5536C28.3015 36.9129 27.2378 37.0888 26.1682 37.0731Z" fill="#2196F3"/>
</svg>
